<svg width="80" height="80" viewBox="0 0 80 80" fill="none" xmlns="http://www.w3.org/2000/svg">
<circle cx="40" cy="40" r="38" stroke="white" stroke-width="4"/>
<path d="M59.375 34.3438H67.125V37.7812H59.375V34.3438ZM53.5625 25.0384L59.0418 20.1778L61.7814 22.6081L56.3021 27.4688L53.5625 25.0384ZM53.5625 47.0866L56.3021 44.6562L61.7814 49.5169L59.0418 51.9472L53.5625 47.0866ZM41.9375 15.4375H45.8125V22.3125H41.9375V15.4375ZM43.875 25.75C43.2255 25.7537 42.5774 25.8055 41.9375 25.9047V29.4316C42.5689 29.2771 43.2201 29.1951 43.875 29.1875C45.9304 29.1875 47.9017 29.9118 49.3551 31.2011C50.8085 32.4905 51.625 34.2391 51.625 36.0625C51.625 37.8859 50.8085 39.6345 49.3551 40.9239C47.9017 42.2132 45.9304 42.9375 43.875 42.9375V46.375C46.9582 46.375 49.915 45.2885 52.0951 43.3545C54.2752 41.4206 55.5 38.7975 55.5 36.0625C55.5 33.3275 54.2752 30.7044 52.0951 28.7705C49.915 26.8365 46.9582 25.75 43.875 25.75ZM28.375 46.6913V24.0312H24.5V46.6913C23.2073 47.0967 22.1178 47.8945 21.424 48.9436C20.7302 49.9928 20.4769 51.2257 20.7087 52.4245C20.9406 53.6234 21.6427 54.7109 22.691 55.4949C23.7394 56.2789 25.0664 56.7089 26.4375 56.7089C27.8087 56.7089 29.1357 56.2789 30.184 55.4949C31.2323 54.7109 31.9344 53.6234 32.1663 52.4245C32.3982 51.2257 32.1448 49.9928 31.451 48.9436C30.7573 47.8945 29.6677 47.0967 28.375 46.6913V46.6913Z" fill="white"/>
<path d="M26.4375 63.5625C23.7676 63.5652 21.1563 62.868 18.9315 61.5585C16.7067 60.2491 14.9677 58.3857 13.9327 56.2024C12.8977 54.0191 12.613 51.6133 13.1142 49.2869C13.6154 46.9605 14.8803 44.8174 16.75 43.1266V24.0312C16.75 21.752 17.7706 19.5662 19.5874 17.9546C21.4041 16.3429 23.8682 15.4375 26.4375 15.4375C29.0068 15.4375 31.4708 16.3429 33.2876 17.9546C35.1043 19.5662 36.125 21.752 36.125 24.0312V43.1266C37.9947 44.8174 39.2595 46.9605 39.7608 49.2869C40.262 51.6133 39.9772 54.0191 38.9423 56.2024C37.9073 58.3857 36.1682 60.2491 33.9435 61.5585C31.7187 62.868 29.1074 63.5652 26.4375 63.5625ZM26.4375 18.875C24.8964 18.8764 23.4188 19.42 22.3291 20.3867C21.2394 21.3534 20.6265 22.6641 20.625 24.0312V44.627L19.9817 45.1409C18.5187 46.3009 17.4872 47.8277 17.0239 49.5192C16.5606 51.2107 16.6872 52.9872 17.3871 54.6134C18.0869 56.2396 19.327 57.639 20.9431 58.6263C22.5592 59.6135 24.4752 60.1421 26.4375 60.1421C28.3997 60.1421 30.3157 59.6135 31.9319 58.6263C33.548 57.639 34.788 56.2396 35.4879 54.6134C36.1877 52.9872 36.3144 51.2107 35.8511 49.5192C35.3877 47.8277 34.3563 46.3009 32.8932 45.1409L32.25 44.627V24.0312C32.2484 22.6641 31.6356 21.3534 30.5458 20.3867C29.4561 19.42 27.9786 18.8764 26.4375 18.875V18.875Z" fill="white"/>
</svg>
