<svg width="81" height="82" viewBox="0 0 81 82" fill="none" xmlns="http://www.w3.org/2000/svg">
<path d="M32.2734 65.3386H46.1953V52.1059H32.2734V65.3386ZM39.2344 72.1754C44.0286 72.1754 45.5195 69.5437 45.9852 67.9063H32.4835C32.9493 69.5463 34.4402 72.1754 39.2344 72.1754ZM39.2344 7.25958C34.5351 7.25958 30.0282 9.14942 26.7053 12.5134C23.3824 15.8773 21.5156 20.4398 21.5156 25.1971C21.5156 35.0883 31.5014 37.8481 32.2051 49.5408H35.4198C35.3995 49.4742 35.3616 49.4127 35.3489 49.3358L30.2864 21.156C30.2388 20.8548 30.2984 20.5463 30.4547 20.2855C30.611 20.0246 30.8538 19.8286 31.1397 19.7322C31.4256 19.6358 31.736 19.6454 32.0155 19.7593C32.2951 19.8732 32.5255 20.084 32.6658 20.354L34.0656 23.1881L35.4653 20.3514C35.5708 20.1395 35.7323 19.9615 35.9319 19.8371C36.1314 19.7127 36.3612 19.6468 36.5956 19.6468C36.8299 19.6468 37.0597 19.7127 37.2592 19.8371C37.4588 19.9615 37.6203 20.1395 37.7258 20.3514L39.1255 23.1855L40.5253 20.3488C40.6295 20.1354 40.7905 19.9557 40.9902 19.8301C41.1899 19.7044 41.4204 19.6379 41.6555 19.6379C41.8907 19.6379 42.1211 19.7044 42.3208 19.8301C42.5206 19.9557 42.6816 20.1354 42.7857 20.3488L44.188 23.183L45.5878 20.3463C45.7266 20.0752 45.9565 19.8631 46.236 19.7484C46.5156 19.6337 46.8264 19.6238 47.1125 19.7206C47.3986 19.8173 47.6412 20.0143 47.7965 20.2761C47.9518 20.5379 48.0096 20.8472 47.9596 21.1483L42.8971 49.3307C42.887 49.4076 42.8465 49.4665 42.8262 49.5306H46.2561C46.9598 37.8405 56.9481 35.0781 56.9481 25.1868C56.9481 15.2853 49.0151 7.24933 39.2293 7.24933L39.2344 7.25958ZM44.1906 27.3316C43.9562 27.3326 43.7262 27.2671 43.5267 27.1425C43.3272 27.018 43.1661 26.8394 43.0616 26.627L41.6593 23.7954L40.2595 26.6295C40.1531 26.8412 39.9909 27.019 39.7909 27.1433C39.591 27.2675 39.361 27.3334 39.1263 27.3337C38.8917 27.334 38.6615 27.2686 38.4613 27.1448C38.261 27.021 38.0985 26.8435 37.9915 26.6321L36.5918 23.8005L35.192 26.6346C35.0879 26.8476 34.9269 27.0267 34.7274 27.1517C34.5279 27.2767 34.2977 27.3426 34.063 27.3419H33.9694L37.6523 47.8419H40.6063L44.2868 27.3419H44.1906V27.3316Z" fill="white"/>
</svg>
